<?xml version="1.0" encoding="utf-8"?>
<!-- Generator: Adobe Illustrator 15.0.0, SVG Export Plug-In . SVG Version: 6.00 Build 0)  -->
<!DOCTYPE svg PUBLIC "-//W3C//DTD SVG 1.1//EN" "http://www.w3.org/Graphics/SVG/1.1/DTD/svg11.dtd">
<svg version="1.1" id="Layer_1" xmlns="http://www.w3.org/2000/svg" xmlns:xlink="http://www.w3.org/1999/xlink" x="0px" y="0px"
	 width="126.479px" height="31.215px" viewBox="0 0 126.479 31.215" enable-background="new 0 0 126.479 31.215"
	 xml:space="preserve">

	<style>
	    <!--
        .logo-path {
            stroke-dasharray: 50;
            stroke-dashoffset: 200;
            -webkit-animation: dash 5s ease-in-out alternate infinite;
            animation: dash 5s ease-in-out alternate infinite;
			-webkit-animation-delay: 1s;
            animation-delay: 1s;
            animation-iteration-count: 1;
            visibility:hidden; 
        }

        .logo-fill {
            opacity: 0;
            -webkit-animation: dash 2s ease-in-out alternate infinite;
            animation: dash 2s ease-in-out alternate infinite;
            -webkit-animation-delay: 2.8s;
            animation-delay: 2.8s;
            animation-fill-mode: forwards;
            animation-iteration-count: 1;
        }

        .globe-path {
			transform: translateY(10px);
			opacity: 0;
			-webkit-animation: globe-slide .5s ease-in-out alternate infinite;
			animation: globe-slide .5s ease-in-out alternate infinite;
            -webkit-animation-delay: 4.5s;
            animation-delay: 4.5s;
            animation-fill-mode: forwards;
            animation-iteration-count: 1;
        }

        g {
        	transform: translateY(-5px);
        	-webkit-animation: labs-slide .5s ease-in-out alternate infinite;
        	animation: labs-slide .5s ease-in-out alternate infinite;
            -webkit-animation-delay: 4.5s;
            animation-delay: 4.5s;
            animation-fill-mode: forwards;
            animation-iteration-count: 1;
        }

        @keyframes dash {
          from {
            stroke-dashoffset: 200;
          }
          to {
            stroke-dashoffset: 0;
            visibility:visible; 
            opacity: 1;
          }
        }

        @keyframes labs-slide {
          to {
            transform: translateY(0px);
          }
        }

        @keyframes globe-slide {
          to {
            transform: translateY(0px);
            opacity: 0.4;
          }
        }
        -->
    </style>

<path class="globe-path" opacity="0.4" fill="#FFFFFF" enable-background="new    " d="M8.079,0h1.389v7.67H8.079V0z M13.365,2.047
	c-1.699,0-2.895,1.162-2.895,2.813c0,1.654,1.192,2.815,2.895,2.815c1.705,0,2.9-1.161,2.9-2.815
	C16.265,3.209,15.07,2.047,13.365,2.047z M13.365,6.582c-0.857,0-1.469-0.711-1.469-1.721c0-1.018,0.61-1.719,1.469-1.719
	c0.863,0,1.477,0.701,1.477,1.719C14.841,5.871,14.228,6.582,13.365,6.582z M3.771,4.529h1.606v1.756
	C5.011,6.461,4.544,6.561,4.07,6.561c-1.555,0-2.632-1.096-2.632-2.695c0-1.578,1.069-2.695,2.615-2.695
	c0.657,0,1.305,0.229,2.028,0.613L6.62,0.811c-0.91-0.494-1.83-0.76-2.729-0.76c-2.279,0-3.868,1.58-3.868,3.814
	c0,2.235,1.623,3.812,3.956,3.812c0.953,0,1.836-0.229,2.787-0.625V3.504H3.771V4.529z M17.21,5.039
	c0.07,1.533,1.229,2.648,2.879,2.648c1.709,0,2.9-1.172,2.9-2.826c0-1.652-1.201-2.822-2.908-2.822
	c-0.557,0-1.047,0.125-1.481,0.354V0h-1.39V5.039L17.21,5.039z M20.085,6.574c-0.854,0-1.467-0.713-1.467-1.721
	c0-1.018,0.613-1.719,1.467-1.719c0.867,0,1.48,0.701,1.48,1.719C21.566,5.861,20.952,6.574,20.085,6.574z M26.472,2.047
	c-1.619,0-2.748,1.162-2.748,2.813c0,1.654,1.192,2.815,2.924,2.815c0.635,0,1.393-0.163,2.146-0.536l-0.426-0.953
	c-0.561,0.308-1.086,0.437-1.545,0.437c-0.922,0-1.6-0.562-1.697-1.437h3.908c0.012-0.147,0.025-0.285,0.025-0.438
	C29.06,3.139,27.995,2.047,26.472,2.047z M25.128,4.383c0.086-0.803,0.623-1.281,1.347-1.281c0.7,0,1.192,0.479,1.237,1.281H25.128z
	"/>

	<g>
		<path class="logo-fill" fill="#FFFFFF" d="M44.777,22.096l7.812,7.814v-5.312l-7.812-7.814l-7.812,7.814v5.312L44.777,22.096z M3.758,27.459V15.56H0
		v15.655h15.654v-3.756H3.758L3.758,27.459z M89.618,26.293c0-1.182-0.467-2.262-1.197-3.105c0.588-0.793,0.953-1.773,0.953-2.818
		c0-2.656-2.348-4.865-4.78-4.865h-6.921h-3.812v15.625h3.812h7.162l0,0C87.279,31.127,89.618,28.952,89.618,26.293z M84.55,19.271
		c0.57,0,1.05,0.5,1.05,1.082c0,0.584-0.438,1.08-1.006,1.08h-6.968v-2.166L84.55,19.271z M84.835,27.456h-7.209v-2.261h7.209
		c0.57,0,1.027,0.521,1.027,1.103C85.863,26.881,85.406,27.456,84.835,27.456z M115.57,19.267h10.908v-3.765H115.56l0,0
		c-2.64,0.082-4.697,2.242-4.697,4.869c0,2.625,2.061,4.764,4.697,4.848l0,0h6.213l0,0c0.565,0,0.928,0.57,0.928,1.121
		s-0.375,1.113-0.943,1.113h-10.901v3.715h10.918l0,0c2.637-0.088,4.697-2.222,4.697-4.847c0-2.628-2.062-4.763-4.697-4.849l0,0
		h-6.211l0,0c-0.564,0-0.935-0.557-0.935-1.107C114.628,19.818,114.999,19.267,115.57,19.267z"/>
		
		<path class="logo-path" stroke="#fff" stroke-width="0.3" stroke-alignment="inner" fill="none" d="M44.777,22.096l7.812,7.814v-5.312l-7.812-7.815l-7.812,7.815v5.312L44.777,22.096z M3.758,27.459V15.56H0
		v15.655h15.654v-3.756H3.758L3.758,27.459z M89.618,26.293c0-1.182-0.467-2.262-1.197-3.105c0.588-0.793,0.953-1.773,0.953-2.819
		c0-2.656-2.348-4.864-4.78-4.864h-6.921h-3.812v15.625h3.812h7.162l0,0C87.279,31.127,89.618,28.952,89.618,26.293z M84.55,19.271
		c0.57,0,1.05,0.5,1.05,1.082c0,0.584-0.438,1.08-1.006,1.08h-6.968v-2.166L84.55,19.271z M84.835,27.456h-7.209v-2.261h7.209
		c0.57,0,1.027,0.521,1.027,1.103C85.863,26.881,85.406,27.456,84.835,27.456z M115.57,19.267h10.908v-3.766H115.56l0,0
		c-2.64,0.082-4.697,2.242-4.697,4.869c0,2.626,2.061,4.765,4.697,4.849l0,0h6.213l0,0c0.565,0,0.928,0.57,0.928,1.121
		s-0.375,1.113-0.943,1.113h-10.901v3.715h10.918l0,0c2.637-0.088,4.697-2.222,4.697-4.847c0-2.628-2.062-4.763-4.697-4.849l0,0
		h-6.211l0,0c-0.564,0-0.935-0.558-0.935-1.108C114.628,19.818,114.999,19.267,115.57,19.267z"/>
	</g>
</svg>
